<?xml version="1.0" encoding="utf-8"?>
<!-- Generator: Adobe Illustrator 23.0.0, SVG Export Plug-In . SVG Version: 6.00 Build 0)  -->
<svg version="1.1" id="Layer_1" xmlns="http://www.w3.org/2000/svg" xmlns:xlink="http://www.w3.org/1999/xlink" x="0px" y="0px"
	 viewBox="0 0 1366 100" style="enable-background:new 0 0 1366 100;" xml:space="preserve">
<style type="text/css">
	.st0{fill:#FFFFFF;}
</style>
<path class="st0" d="M1348.9,10.5l-187.5,13.6c-23,1.7-46.8,1.2-68.4-1.4l-88-10.6c-34.5-4.2-74-2.9-106.1,3.5L786.1,38
	c-25,5-54.8,6.9-83.4,5.5l-99.2-5.1c-34.4-1.8-70.1,1.4-97.2,8.6l-99.4,26.4c-28.5,7.6-66.5,10.7-102.3,8.3l-76.5-5
	c-36.4-2.4-74.9,0.9-103.6,8.7l0,0C51.7,105.4-60.2,92.2-66.9,62.8l-9.9-43.7C-81.2-0.6-32.8-18.4,31.4-20.6l1286.3-43.2
	c64.2-2.2,119.8,12.1,124.2,31.9l0.8,3.4C1446.8-10.4,1406.6,6.3,1348.9,10.5z"/>
</svg>
